<svg width="550" height="265" viewBox="0 0 550 265" fill="none" xmlns="http://www.w3.org/2000/svg">
<rect y="265" width="1" height="550" transform="rotate(-90 0 265)" fill="#D9D9D9"/>
<rect y="253" width="1" height="550" transform="rotate(-90 0 253)" fill="#D9D9D9"/>
<rect y="241" width="1" height="550" transform="rotate(-90 0 241)" fill="#D9D9D9"/>
<rect y="229" width="1" height="550" transform="rotate(-90 0 229)" fill="#D9D9D9"/>
<rect y="217" width="1" height="550" transform="rotate(-90 0 217)" fill="#D9D9D9"/>
<rect y="205" width="1" height="550" transform="rotate(-90 0 205)" fill="#D9D9D9"/>
<rect y="193" width="1" height="550" transform="rotate(-90 0 193)" fill="#D9D9D9"/>
<rect y="181" width="1" height="550" transform="rotate(-90 0 181)" fill="#D9D9D9"/>
<rect y="169" width="1" height="550" transform="rotate(-90 0 169)" fill="#D9D9D9"/>
<rect y="157" width="1" height="550" transform="rotate(-90 0 157)" fill="#D9D9D9"/>
<rect y="145" width="1" height="550" transform="rotate(-90 0 145)" fill="#D9D9D9"/>
<rect y="133" width="1" height="550" transform="rotate(-90 0 133)" fill="#D9D9D9"/>
<rect y="121" width="1" height="550" transform="rotate(-90 0 121)" fill="#D9D9D9"/>
<rect y="109" width="1" height="550" transform="rotate(-90 0 109)" fill="#D9D9D9"/>
<rect y="97" width="1" height="550" transform="rotate(-90 0 97)" fill="#D9D9D9"/>
<rect y="85" width="1" height="550" transform="rotate(-90 0 85)" fill="#D9D9D9"/>
<rect y="73" width="1" height="550" transform="rotate(-90 0 73)" fill="#D9D9D9"/>
<rect y="61" width="1" height="550" transform="rotate(-90 0 61)" fill="#D9D9D9"/>
<rect y="49" width="1" height="550" transform="rotate(-90 0 49)" fill="#D9D9D9"/>
<rect y="37" width="1" height="550" transform="rotate(-90 0 37)" fill="#D9D9D9"/>
<rect y="25" width="1" height="550" transform="rotate(-90 0 25)" fill="#D9D9D9"/>
<rect y="13" width="1" height="550" transform="rotate(-90 0 13)" fill="#D9D9D9"/>
<rect y="1" width="1" height="550" transform="rotate(-90 0 1)" fill="#D9D9D9"/>
</svg>
